<svg width="26" height="24" viewBox="0 0 26 24" fill="none" xmlns="http://www.w3.org/2000/svg">
<path d="M9.68667 15.5721C4.73191 15.5721 0.5 16.3375 0.5 19.3967C0.5 22.4582 4.705 23.25 9.68667 23.25C14.6414 23.25 18.8733 22.4846 18.8733 19.4254C18.8733 16.3639 14.6683 15.5721 9.68667 15.5721" fill="#CF7D4E"/>
<path opacity="0.4" d="M9.68669 12.656C13.0612 12.656 15.7655 10.0077 15.7655 6.70301C15.7655 3.39831 13.0612 0.75 9.68669 0.75C6.3134 0.75 3.60791 3.39831 3.60791 6.70301C3.60791 10.0077 6.3134 12.656 9.68669 12.656" fill="#CF7D4E"/>
<path opacity="0.4" d="M18.2167 6.81091C18.2167 8.49381 17.7006 10.0641 16.7955 11.3685C16.7013 11.5027 16.7845 11.6835 16.9484 11.7123C17.1759 11.7494 17.4095 11.7722 17.648 11.7769C20.0208 11.838 22.1502 10.342 22.7385 8.08896C23.6106 4.74592 21.0519 1.74426 17.7923 1.74426C17.4388 1.74426 17.1 1.7802 16.7698 1.84607C16.7245 1.85566 16.6756 1.87722 16.6512 1.91555C16.6194 1.96466 16.6426 2.02814 16.6744 2.07006C17.6541 3.41518 18.2167 5.05256 18.2167 6.81091" fill="#CF7D4E"/>
<path d="M25.2239 15.9617C24.7897 15.055 23.7415 14.4333 22.1466 14.1279C21.3944 13.9482 19.3567 13.6931 17.4622 13.729C17.434 13.7326 17.4181 13.7518 17.4157 13.7637C17.412 13.7829 17.4206 13.8117 17.4573 13.832C18.333 14.256 21.7173 16.1006 21.2917 19.991C21.2733 20.1611 21.4115 20.3049 21.584 20.2809C22.4169 20.1647 24.5598 19.7132 25.2239 18.3094C25.5921 17.5667 25.5921 16.7043 25.2239 15.9617" fill="#CF7D4E"/>
</svg>
