<svg width="60" height="60" viewBox="0 0 60 60" fill="none" xmlns="http://www.w3.org/2000/svg">
<path opacity="0.4" d="M29.9998 4.99951C43.7873 4.99951 54.9998 16.2145 54.9998 29.9995C54.9998 43.7845 43.7873 54.9995 29.9998 54.9995C16.2148 54.9995 4.99976 43.7845 4.99976 29.9995C4.99976 16.2145 16.2148 4.99951 29.9998 4.99951" fill="#24BEE0"/>
<path d="M26.3937 19.4478C26.8712 19.4478 27.3512 19.6303 27.7162 19.9953L36.4337 28.6703C36.7862 29.0228 36.9837 29.5003 36.9837 30.0003C36.9837 30.4978 36.7862 30.9753 36.4337 31.3278L27.7162 40.0078C26.9837 40.7378 25.7987 40.7378 25.0662 40.0028C24.3362 39.2678 24.3387 38.0803 25.0712 37.3503L32.4537 30.0003L25.0712 22.6503C24.3387 21.9203 24.3362 20.7353 25.0662 20.0003C25.4312 19.6303 25.9137 19.4478 26.3937 19.4478" fill="#C4C4C4"/>
</svg>
