<svg width="16" height="16" viewBox="0 0 16 16" fill="none" xmlns="http://www.w3.org/2000/svg">
<path d="M8.09432 4.39327C7.93832 4.47743 7.84107 4.63746 7.84107 4.81152V7.52182H2.48953C2.21931 7.52182 2 7.73604 2 7.99999C2 8.26395 2.21931 8.47817 2.48953 8.47817H7.84107V11.1885C7.84107 11.3632 7.93832 11.5232 8.09432 11.6067C8.25031 11.6915 8.4409 11.6858 8.59168 11.5933L13.7716 8.40485C13.9138 8.31686 14 8.16449 14 7.99999C14 7.8355 13.9138 7.68312 13.7716 7.59514L8.59168 4.40666C8.51205 4.35821 8.42132 4.33334 8.3306 4.33334C8.24966 4.33334 8.16807 4.35375 8.09432 4.39327Z" fill="#0F97B5"/>
</svg>
