<svg width="60" height="60" viewBox="0 0 60 60" fill="none" xmlns="http://www.w3.org/2000/svg">
<path opacity="0.4" d="M30.0002 55.0005C16.2127 55.0005 5.00024 43.7855 5.00024 30.0005C5.00024 16.2155 16.2127 5.00049 30.0002 5.00049C43.7852 5.00049 55.0002 16.2155 55.0002 30.0005C55.0002 43.7855 43.7852 55.0005 30.0002 55.0005" fill="#C4C4C4"/>
<path d="M33.6063 40.5522C33.1288 40.5522 32.6488 40.3697 32.2838 40.0047L23.5663 31.3297C23.2138 30.9772 23.0163 30.4997 23.0163 29.9997C23.0163 29.5022 23.2138 29.0247 23.5663 28.6722L32.2838 19.9922C33.0163 19.2622 34.2013 19.2622 34.9338 19.9972C35.6638 20.7322 35.6613 21.9197 34.9288 22.6497L27.5463 29.9997L34.9288 37.3497C35.6613 38.0797 35.6638 39.2647 34.9338 39.9997C34.5688 40.3697 34.0863 40.5522 33.6063 40.5522" fill="#C4C4C4"/>
</svg>
