<svg width="80" height="80" viewBox="0 0 80 80" fill="none" xmlns="http://www.w3.org/2000/svg">
<g clip-path="url(#clip0_117_764)">
<path d="M23.8999 56.6667C25.5999 56.6667 27.1666 55.7 27.8999 54.2L32.6332 44.7334C33.0999 43.8 33.3333 42.8 33.3333 41.7667V26.6667C33.3333 24.8334 31.8333 23.3334 29.9999 23.3334H16.6666C14.8333 23.3334 13.3333 24.8334 13.3333 26.6667V40C13.3333 41.8334 14.8333 43.3334 16.6666 43.3334H23.3333L19.8999 50.2C18.3999 53.1667 20.5666 56.6667 23.8999 56.6667ZM57.2332 56.6667C58.9332 56.6667 60.4999 55.7 61.2332 54.2L65.9666 44.7334C66.4333 43.8 66.6666 42.8 66.6666 41.7667V26.6667C66.6666 24.8334 65.1666 23.3334 63.3332 23.3334H49.9999C48.1666 23.3334 46.6666 24.8334 46.6666 26.6667V40C46.6666 41.8334 48.1666 43.3334 49.9999 43.3334H56.6666L53.2332 50.2C51.7332 53.1667 53.8999 56.6667 57.2332 56.6667Z" fill="#12CCF4" fill-opacity="0.3"/>
</g>
<defs>
<clipPath id="clip0_117_764">
<rect width="80" height="80" fill="white"/>
</clipPath>
</defs>
</svg>
