<svg width="26" height="24" viewBox="0 0 26 24" fill="none" xmlns="http://www.w3.org/2000/svg">
<path opacity="0.4" d="M25.4999 16.9252C25.4999 20.4127 22.6999 23.2377 19.2124 23.2502H19.1999H6.81238C3.33738 23.2502 0.499878 20.4377 0.499878 16.9502V16.9377C0.499878 16.9377 0.507378 11.4052 0.517378 8.62274C0.518628 8.10024 1.11863 7.80774 1.52738 8.13274C4.49738 10.489 9.80863 14.7852 9.87488 14.8415C10.7624 15.5527 11.8874 15.954 13.0374 15.954C14.1874 15.954 15.3124 15.5527 16.1999 14.8277C16.2661 14.784 21.4586 10.6165 24.4736 8.22149C24.8836 7.89524 25.4861 8.18774 25.4874 8.70899C25.4999 11.4702 25.4999 16.9252 25.4999 16.9252" fill="#CF7D4E"/>
<path d="M24.845 4.09201C23.7625 2.05201 21.6325 0.749512 19.2875 0.749512H6.81248C4.46748 0.749512 2.33748 2.05201 1.25498 4.09201C1.01248 4.54826 1.12748 5.11701 1.53123 5.43951L10.8125 12.8633C11.4625 13.3883 12.25 13.6495 13.0375 13.6495C13.0425 13.6495 13.0462 13.6495 13.05 13.6495C13.0537 13.6495 13.0587 13.6495 13.0625 13.6495C13.85 13.6495 14.6375 13.3883 15.2875 12.8633L24.5687 5.43951C24.9725 5.11701 25.0875 4.54826 24.845 4.09201" fill="#CF7D4E"/>
</svg>
