<svg width="188" height="50" viewBox="0 0 188 50" fill="none" xmlns="http://www.w3.org/2000/svg">
<circle cx="94" cy="25" r="25" fill="#062126" fill-opacity="0.1"/>
<circle cx="163" cy="25" r="25" fill="#062126" fill-opacity="0.1"/>
<g clip-path="url(#clip0_90_1437)">
<path d="M97.3309 18.3208H99.1567V15.1408C98.8417 15.0975 97.7584 15 96.4967 15C93.8642 15 92.0609 16.6558 92.0609 19.6992V22.5H89.1559V26.055H92.0609V35H95.6225V26.0558H98.41L98.8525 22.5008H95.6217V20.0517C95.6225 19.0242 95.8992 18.3208 97.3309 18.3208Z" fill="#062126" fill-opacity="0.7"/>
</g>
<g clip-path="url(#clip1_90_1437)">
<path d="M172.995 35.0001V34.9993H173V27.6643C173 24.0759 172.228 21.3118 168.033 21.3118C166.016 21.3118 164.663 22.4184 164.11 23.4676H164.052V21.6468H160.074V34.9993H164.216V28.3876C164.216 26.6468 164.546 24.9634 166.702 24.9634C168.826 24.9634 168.858 26.9501 168.858 28.4993V35.0001H172.995Z" fill="#062126" fill-opacity="0.7"/>
<path d="M153.33 21.6475H157.477V35H153.33V21.6475Z" fill="#062126" fill-opacity="0.7"/>
<path d="M155.402 15C154.076 15 153 16.0758 153 17.4017C153 18.7275 154.076 19.8258 155.402 19.8258C156.727 19.8258 157.803 18.7275 157.803 17.4017C157.802 16.0758 156.727 15 155.402 15V15Z" fill="#062126" fill-opacity="0.7"/>
</g>
<circle cx="25" cy="25" r="25" fill="#062126" fill-opacity="0.1"/>
<path d="M32.945 20.9275C33.7583 20.35 34.4425 19.6292 35 18.7992V18.7983C34.2558 19.1242 33.4642 19.3408 32.6375 19.4458C33.4875 18.9383 34.1367 18.1408 34.4417 17.18C33.6492 17.6525 32.7742 17.9858 31.8417 18.1725C31.0892 17.3708 30.0167 16.875 28.8467 16.875C26.5767 16.875 24.7492 18.7175 24.7492 20.9758C24.7492 21.3008 24.7767 21.6133 24.8442 21.9108C21.4358 21.7442 18.4192 20.1108 16.3925 17.6217C16.0392 18.2358 15.8308 18.9383 15.8308 19.6942C15.8308 21.1142 16.5617 22.3725 17.6525 23.1017C16.9933 23.0892 16.3475 22.8975 15.8 22.5967V22.6417C15.8 24.6342 17.2208 26.2892 19.085 26.6708C18.7508 26.7625 18.3875 26.8058 18.01 26.8058C17.7475 26.8058 17.4825 26.7908 17.2342 26.7358C17.765 28.3592 19.2733 29.5533 21.065 29.5925C19.67 30.6833 17.8983 31.3408 15.9808 31.3408C15.645 31.3408 15.3225 31.3258 15 31.285C16.8167 32.4558 18.9683 33.125 21.29 33.125C28.5258 33.125 33.2417 27.0883 32.945 20.9275Z" fill="#062126" fill-opacity="0.7"/>
<defs>
<clipPath id="clip0_90_1437">
<rect width="20" height="20" fill="white" transform="translate(84 15)"/>
</clipPath>
<clipPath id="clip1_90_1437">
<rect width="20" height="20" fill="white" transform="translate(153 15)"/>
</clipPath>
</defs>
</svg>
