<svg width="100" height="100" viewBox="0 0 100 100" fill="none" xmlns="http://www.w3.org/2000/svg">
<rect width="100" height="100" rx="50" fill="#24BEE0" fill-opacity="0.1"/>
<path d="M30.2814 44.5311C29.8501 44.5311 29.5001 44.8811 29.5001 45.3124C29.5001 45.7436 29.8501 46.0936 30.2814 46.0936C30.7126 46.0936 31.0626 45.7436 31.0626 45.3124C31.0626 44.8811 30.7126 44.5311 30.2814 44.5311Z" fill="#24BEE0"/>
<path d="M49.0312 46.0936H45.1249V42.1874C45.1249 41.756 44.7751 41.4061 44.3437 41.4061H39.6562C39.2247 41.4061 38.8749 41.756 38.8749 42.1874V46.0936H34.9686C34.5372 46.0936 34.1874 46.4435 34.1874 46.8749V51.5624C34.1874 51.9938 34.5372 52.3437 34.9686 52.3437H38.8749V56.2499C38.8749 56.6813 39.2247 57.0312 39.6562 57.0312H44.3437C44.7751 57.0312 45.1249 56.6813 45.1249 56.2499V52.3437H49.0312C49.4626 52.3437 49.8124 51.9938 49.8124 51.5624V46.8749C49.8124 46.4435 49.4626 46.0936 49.0312 46.0936ZM48.2499 50.7812H44.3437C43.9123 50.7812 43.5624 51.131 43.5624 51.5624V55.4687H40.4374V51.5624C40.4374 51.131 40.0876 50.7812 39.6562 50.7812H35.7499V47.6562H39.6562C40.0876 47.6562 40.4374 47.3063 40.4374 46.8749V42.9686H43.5624V46.8749C43.5624 47.3063 43.9123 47.6562 44.3437 47.6562H48.2499V50.7812Z" fill="#24BEE0"/>
<path d="M54.0608 32.4016C52.7959 33.2229 51.3269 33.6569 49.8127 33.6569C47.4969 33.6569 45.314 32.6379 43.8238 30.8611C43.8237 30.8611 43.8237 30.8611 43.8237 30.8611C43.3647 30.3139 42.7 30 42.0002 30C41.3003 30 40.6356 30.3139 40.1766 30.861C38.6863 32.6378 36.5034 33.6568 34.1877 33.6568C32.6734 33.6568 31.2044 33.2227 29.9396 32.4016C28.3948 31.399 26.3751 32.5794 26.3751 34.399V50.3343C26.3751 53.8789 27.5122 57.3421 29.5765 60.0859C34.6836 66.8765 41.4084 69.8148 41.6921 69.9366C41.7905 69.9788 41.8954 70 42.0002 70C42.105 70 42.21 69.9788 42.3082 69.9366C42.592 69.8148 49.3168 66.8766 54.4237 60.0868C56.4883 57.3421 57.6252 53.8786 57.6252 50.3343V34.3991C57.6252 32.5793 55.6051 31.399 54.0608 32.4016ZM53.1751 59.1475C48.928 64.794 43.3575 67.7049 41.9997 68.358C40.6413 67.7065 35.0816 64.8064 30.8252 59.1467C28.9631 56.6719 27.9376 53.5424 27.9376 50.3344V34.3991C27.9376 33.8043 28.594 33.3911 29.0887 33.7122C30.6076 34.6982 32.3708 35.2194 34.1877 35.2194C36.9666 35.2194 39.5859 33.9969 41.3737 31.8652C41.5374 31.67 41.7599 31.5625 42.0002 31.5625C42.2405 31.5625 42.4629 31.67 42.6266 31.8652C44.4146 33.9968 47.0338 35.2194 49.8127 35.2194C51.6296 35.2194 53.3927 34.6982 54.9116 33.7122C55.3984 33.396 56.0627 33.7953 56.0627 34.3991V50.3343C56.0627 53.542 55.0373 56.6719 53.1751 59.1475Z" fill="#24BEE0"/>
<path d="M54.1697 36.2517C53.9623 36.1053 53.6969 36.0687 53.4577 36.1535C52.2823 36.5705 51.0559 36.7819 49.8127 36.7819C47.1273 36.7819 44.5375 35.7906 42.5203 33.9905C42.224 33.7261 41.7763 33.7261 41.48 33.9905C39.4629 35.7906 36.873 36.7819 34.1876 36.7819C32.9444 36.7819 31.718 36.5705 30.5426 36.1535C30.3033 36.0687 30.038 36.1053 29.8307 36.2517C29.6235 36.3981 29.5002 36.6361 29.5002 36.8898V42.1875C29.5002 42.6189 29.85 42.9688 30.2815 42.9688C30.7129 42.9688 31.0627 42.6189 31.0627 42.1875V37.9458C32.0829 38.2107 33.1299 38.3445 34.1877 38.3445C37.0311 38.3445 39.7795 37.3732 42.0002 35.596C44.221 37.3732 46.9694 38.3445 49.8128 38.3445C50.8706 38.3445 51.9176 38.2107 52.9378 37.9458V50.3344C52.9378 52.8696 52.1352 55.3316 50.6773 57.2672C47.7232 61.1966 44.115 63.6297 42.0076 64.8276C39.8835 63.614 36.2522 61.1625 33.3229 57.2685C31.8654 55.3317 31.0626 52.8691 31.0626 50.3343V48.4374C31.0626 48.006 30.7128 47.6562 30.2814 47.6562C29.85 47.6562 29.5001 48.006 29.5001 48.4374V50.3343C29.5001 53.2059 30.4143 56.0022 32.0743 58.2079C35.3595 62.5752 39.4713 65.2196 41.6298 66.4072C41.747 66.4717 41.8767 66.5039 42.0063 66.5039C42.1353 66.5039 42.2643 66.472 42.381 66.4082C44.5229 65.2376 48.6111 62.6154 51.9258 58.2067C53.5858 56.0023 54.5001 53.2066 54.5001 50.3343V36.8897C54.5001 36.636 54.3769 36.3981 54.1697 36.2517Z" fill="#24BEE0"/>
</svg>
