<svg width="100" height="100" viewBox="0 0 100 100" fill="none" xmlns="http://www.w3.org/2000/svg">
<rect width="100" height="100" rx="50" fill="#24BEE0" fill-opacity="0.1"/>
<path d="M38.2815 44.5311C37.8502 44.5311 37.5002 44.8811 37.5002 45.3124C37.5002 45.7436 37.8502 46.0936 38.2815 46.0936C38.7127 46.0936 39.0628 45.7436 39.0628 45.3124C39.0628 44.8811 38.7127 44.5311 38.2815 44.5311Z" fill="#24BEE0"/>
<path d="M57.0311 46.0936H53.1248V42.1874C53.1248 41.756 52.775 41.4061 52.3436 41.4061H47.656C47.2246 41.4061 46.8748 41.756 46.8748 42.1874V46.0936H42.9685C42.5371 46.0936 42.1873 46.4435 42.1873 46.8749V51.5624C42.1873 51.9938 42.5371 52.3437 42.9685 52.3437H46.8748V56.2499C46.8748 56.6813 47.2246 57.0312 47.656 57.0312H52.3436C52.775 57.0312 53.1248 56.6813 53.1248 56.2499V52.3437H57.0311C57.4625 52.3437 57.8123 51.9938 57.8123 51.5624V46.8749C57.8123 46.4435 57.4625 46.0936 57.0311 46.0936ZM56.2498 50.7812H52.3436C51.9121 50.7812 51.5623 51.131 51.5623 51.5624V55.4687H48.4373V51.5624C48.4373 51.131 48.0874 50.7812 47.656 50.7812H43.7498V47.6562H47.656C48.0874 47.6562 48.4373 47.3063 48.4373 46.8749V42.9686H51.5623V46.8749C51.5623 47.3063 51.9121 47.6562 52.3436 47.6562H56.2498V50.7812Z" fill="#24BEE0"/>
<path d="M62.0607 32.4016C60.7958 33.2229 59.3268 33.6569 57.8126 33.6569C55.4968 33.6569 53.3139 32.6379 51.8237 30.8611C51.8236 30.8611 51.8236 30.8611 51.8236 30.8611C51.3646 30.3139 50.6999 30 50.0001 30C49.3002 30 48.6355 30.3139 48.1765 30.861C46.6862 32.6378 44.5032 33.6568 42.1875 33.6568C40.6733 33.6568 39.2043 33.2227 37.9395 32.4016C36.3947 31.399 34.375 32.5794 34.375 34.399V50.3343C34.375 53.8789 35.512 57.3421 37.5764 60.0859C42.6835 66.8765 49.4083 69.8148 49.692 69.9366C49.7904 69.9788 49.8953 70 50.0001 70C50.1048 70 50.2098 69.9788 50.3081 69.9366C50.5919 69.8148 57.3167 66.8766 62.4236 60.0868C64.4882 57.3421 65.6251 53.8786 65.6251 50.3343V34.3991C65.6251 32.5793 63.605 31.399 62.0607 32.4016ZM61.175 59.1475C56.9279 64.794 51.3574 67.7049 49.9996 68.358C48.6412 67.7065 43.0815 64.8064 38.8251 59.1467C36.963 56.6719 35.9375 53.5424 35.9375 50.3344V34.3991C35.9375 33.8043 36.5938 33.3911 37.0886 33.7122C38.6074 34.6982 40.3706 35.2194 42.1875 35.2194C44.9664 35.2194 47.5858 33.9969 49.3736 31.8652C49.5373 31.67 49.7597 31.5625 50.0001 31.5625C50.2404 31.5625 50.4628 31.67 50.6265 31.8652C52.4144 33.9968 55.0337 35.2194 57.8126 35.2194C59.6295 35.2194 61.3926 34.6982 62.9115 33.7122C63.3982 33.396 64.0626 33.7953 64.0626 34.3991V50.3343C64.0626 53.542 63.0371 56.6719 61.175 59.1475Z" fill="#24BEE0"/>
<path d="M62.1698 36.2517C61.9625 36.1053 61.6971 36.0687 61.4578 36.1535C60.2824 36.5705 59.056 36.7819 57.8128 36.7819C55.1274 36.7819 52.5376 35.7906 50.5205 33.9905C50.2241 33.7261 49.7765 33.7261 49.4801 33.9905C47.463 35.7906 44.8732 36.7819 42.1878 36.7819C40.9446 36.7819 39.7181 36.5705 38.5427 36.1535C38.3034 36.0687 38.0381 36.1053 37.8308 36.2517C37.6236 36.3981 37.5003 36.6361 37.5003 36.8898V42.1875C37.5003 42.6189 37.8502 42.9688 38.2816 42.9688C38.713 42.9688 39.0628 42.6189 39.0628 42.1875V37.9458C40.083 38.2107 41.13 38.3445 42.1878 38.3445C45.0312 38.3445 47.7797 37.3732 50.0004 35.596C52.2211 37.3732 54.9695 38.3445 57.8129 38.3445C58.8707 38.3445 59.9178 38.2107 60.9379 37.9458V50.3344C60.9379 52.8696 60.1353 55.3316 58.6774 57.2672C55.7233 61.1966 52.1151 63.6297 50.0077 64.8276C47.8836 63.614 44.2523 61.1625 41.323 57.2685C39.8655 55.3317 39.0628 52.8691 39.0628 50.3343V48.4374C39.0628 48.006 38.7129 47.6562 38.2815 47.6562C37.8501 47.6562 37.5002 48.006 37.5002 48.4374V50.3343C37.5002 53.2059 38.4145 56.0022 40.0744 58.2079C43.3596 62.5752 47.4714 65.2196 49.6299 66.4072C49.7472 66.4717 49.8768 66.5039 50.0065 66.5039C50.1354 66.5039 50.2644 66.472 50.3812 66.4082C52.523 65.2376 56.6113 62.6154 59.9259 58.2067C61.586 56.0023 62.5003 53.2066 62.5003 50.3343V36.8897C62.5003 36.636 62.377 36.3981 62.1698 36.2517Z" fill="#24BEE0"/>
</svg>
