<svg width="150" height="44" viewBox="0 0 150 44" fill="none" xmlns="http://www.w3.org/2000/svg">
<g clip-path="url(#clip0_88_822)">
<path d="M42.3549 22C42.3549 28.149 39.7363 33.6852 35.5494 37.5536C35.547 37.5512 35.5421 37.5512 35.5373 37.5487C26.6821 34.8645 28.3403 30.0381 28.3403 30.0381C28.3403 30.0381 31.6154 25.951 31.4355 23.1208C31.3261 21.4383 31.044 20.6554 30.8301 20.3004C30.7231 20.1205 30.4824 20.0719 30.3122 20.1959C29.1403 21.0663 24.4525 24.8009 25.9527 28.0444C25.9527 28.0444 27.9562 31.7936 27.6741 33.002C27.6741 33.002 21.6491 28.9464 23.835 22.2601C23.835 22.2601 27.9051 19.8773 27.5428 16.2351C27.1781 12.5929 25.6074 11.4599 25.6074 11.4599C25.6074 11.4599 22.0333 14.1903 22.1014 17.6478C22.1062 17.9055 22.1524 18.1608 22.2351 18.4039C22.4685 19.092 22.9913 20.8305 22.6776 21.8103C22.2886 23.0236 22.8016 26.1795 22.8235 26.323C22.7335 26.143 19.7843 20.2104 19.9958 19.5248C20.2097 18.8294 20.9902 15.5373 19.7478 13.0208C18.8579 11.2167 17.3042 10.1615 16.497 9.70926C16.215 9.55122 15.86 9.67279 15.7384 9.97185C15.1646 11.3504 13.8954 15.1337 15.9743 17.6137C18.5564 20.6919 21.0121 21.9343 22.4539 28.538C22.4539 28.538 20.8905 27.1715 19.8475 25.7078C18.8311 24.2806 14.7537 19.8628 9.95413 23.6266C9.80338 23.7457 9.85687 23.984 10.0441 24.0253C10.9388 24.232 12.9934 24.9468 15.223 27.3515C15.7627 27.9326 16.5627 28.1903 17.3383 28.0249C18.5053 27.7745 20.1174 27.456 20.6134 27.4925C21.423 27.5533 28.3841 35.6352 28.3841 35.6352L27.2924 35.5647C27.0225 35.5477 26.7769 35.4091 26.6189 35.1927C26.3296 34.7891 25.7582 34.1205 24.9291 33.6828C24.1486 33.2719 23.2222 33.2379 22.3931 33.5491C20.9829 34.0816 18.1941 35.2389 17.5376 36.3355C17.4477 36.4862 17.5352 36.6783 17.7054 36.7075C18.3959 36.8217 20.273 37.0892 23.1663 37.15C23.2028 37.1524 23.2393 37.15 23.2733 37.1475C23.6964 37.1159 26.3831 36.8849 27.1028 36.2698C27.2535 36.1409 27.448 36.0729 27.6474 36.0607C28.6126 35.9951 31.2045 36.0972 34.5258 38.4289C30.8811 41.3928 26.2323 43.1725 21.1677 43.1725C9.48001 43.1774 0 33.695 0 22C0 10.3049 9.48001 0.82251 21.1774 0.82251C32.8749 0.82251 42.3549 10.3049 42.3549 22Z" fill="#24BEE0"/>
<path d="M71.7429 15.5129V29.2576H69.489V19.8433L65.2973 29.2576H63.7339L59.5203 19.8433V29.2576H57.2664V15.5129H59.7002L64.5265 26.2913L69.3334 15.5129H71.7429Z" fill="black"/>
<path d="M84.6199 24.6501H76.2948C76.3605 25.5206 76.6838 26.2184 77.2649 26.746C77.8461 27.2736 78.556 27.5362 79.3997 27.5362C80.613 27.5362 81.4688 27.028 81.9697 26.0141H84.4011C84.0704 27.0159 83.4747 27.8377 82.6116 28.4772C81.7484 29.1166 80.6762 29.4376 79.3973 29.4376C78.3566 29.4376 77.423 29.2041 76.5987 28.7349C75.7745 28.2681 75.1278 27.6067 74.6609 26.7582C74.1917 25.9072 73.9583 24.9225 73.9583 23.8016C73.9583 22.6807 74.1868 21.696 74.6415 20.845C75.0961 19.994 75.7356 19.34 76.5598 18.878C77.3841 18.416 78.3299 18.1851 79.3973 18.1851C80.4258 18.1851 81.3424 18.4087 82.1472 18.8586C82.952 19.3059 83.5768 19.9357 84.0266 20.7477C84.474 21.5598 84.7001 22.4911 84.7001 23.5463C84.6977 23.9499 84.671 24.3195 84.6199 24.6501ZM82.3441 22.829C82.332 21.9975 82.0329 21.3337 81.4542 20.8304C80.8731 20.3295 80.1559 20.0791 79.2976 20.0791C78.5195 20.0791 77.8533 20.3271 77.299 20.8207C76.7446 21.3143 76.4164 21.9853 76.3094 22.829H82.3441Z" fill="black"/>
<path d="M86.8444 20.8523C87.299 20.0086 87.919 19.3521 88.7044 18.8853C89.4897 18.4185 90.3626 18.1826 91.3254 18.1826C92.0378 18.1826 92.7405 18.3382 93.431 18.647C94.1239 18.9582 94.6734 19.3691 95.0819 19.8822V14.623H97.3553V29.2576H95.0819V27.6164C94.7123 28.144 94.2018 28.5792 93.5501 28.9221C92.8985 29.2649 92.1497 29.4351 91.306 29.4351C90.3577 29.4351 89.4897 29.1944 88.7044 28.713C87.919 28.2316 87.3015 27.5605 86.8444 26.6949C86.3897 25.8318 86.1611 24.8519 86.1611 23.7578C86.1611 22.6661 86.3897 21.696 86.8444 20.8523ZM94.6151 21.8419C94.3063 21.2875 93.9003 20.8669 93.3994 20.5751C92.8985 20.2858 92.3588 20.1399 91.7777 20.1399C91.1965 20.1399 90.6568 20.2809 90.1559 20.5654C89.655 20.8498 89.249 21.2632 88.9402 21.8102C88.6314 22.3573 88.4758 23.0065 88.4758 23.7578C88.4758 24.5091 88.6314 25.168 88.9402 25.7345C89.249 26.301 89.6575 26.7338 90.1656 27.0304C90.6738 27.3271 91.2111 27.4754 91.7777 27.4754C92.3588 27.4754 92.8985 27.3295 93.3994 27.0402C93.9003 26.7508 94.3063 26.3253 94.6151 25.7637C94.9239 25.2045 95.0795 24.548 95.0795 23.7967C95.0795 23.0478 94.9263 22.3938 94.6151 21.8419Z" fill="black"/>
<path d="M102.576 18.3601H100.322V29.2576H102.576V18.3601Z" fill="black"/>
<path d="M105.474 20.8426C105.929 19.9916 106.558 19.3375 107.363 18.8756C108.168 18.4136 109.09 18.1826 110.133 18.1826C111.45 18.1826 112.542 18.4963 113.405 19.1211C114.268 19.7484 114.852 20.6408 115.156 21.8005H112.722C112.525 21.2608 112.209 20.8377 111.774 20.5338C111.339 20.2299 110.791 20.0791 110.133 20.0791C109.209 20.0791 108.474 20.4049 107.927 21.059C107.38 21.7106 107.105 22.6248 107.105 23.7991C107.105 24.9735 107.378 25.8901 107.927 26.549C108.474 27.208 109.209 27.5386 110.133 27.5386C111.438 27.5386 112.301 26.9648 112.724 25.8172H115.158C114.842 26.9259 114.249 27.8036 113.378 28.4577C112.508 29.1093 111.426 29.4375 110.135 29.4375C109.094 29.4375 108.17 29.2041 107.366 28.7349C106.561 28.268 105.931 27.6067 105.476 26.7581C105.022 25.9072 104.793 24.9224 104.793 23.8016C104.791 22.6783 105.019 21.6935 105.474 20.8426Z" fill="black"/>
<path d="M119.664 18.3601H117.41V29.2576H119.664V18.3601Z" fill="black"/>
<path d="M130.432 18.7151C131.11 19.0701 131.64 19.5977 132.025 20.2979C132.406 20.9957 132.598 21.8394 132.598 22.829V29.2576H130.364V23.167C130.364 22.192 130.121 21.4431 129.632 20.9228C129.143 20.4025 128.477 20.1423 127.633 20.1423C126.79 20.1423 126.121 20.4025 125.625 20.9228C125.132 21.4431 124.884 22.192 124.884 23.167V29.2576H122.63V18.3601H124.884V19.605C125.253 19.1576 125.725 18.8075 126.299 18.557C126.872 18.3066 127.483 18.1802 128.127 18.1802C128.985 18.1826 129.754 18.3601 130.432 18.7151Z" fill="black"/>
<path d="M145.373 24.6501H137.048C137.114 25.5206 137.437 26.2184 138.018 26.746C138.599 27.2736 139.309 27.5362 140.153 27.5362C141.366 27.5362 142.222 27.028 142.723 26.0141H145.154C144.824 27.0159 144.228 27.8377 143.365 28.4772C142.502 29.1166 141.429 29.4376 140.15 29.4376C139.11 29.4376 138.176 29.2041 137.352 28.7349C136.528 28.2681 135.881 27.6067 135.414 26.7582C134.945 25.9072 134.711 24.9225 134.711 23.8016C134.711 22.6807 134.94 21.696 135.395 20.845C135.849 19.994 136.489 19.34 137.313 18.878C138.137 18.416 139.083 18.1851 140.15 18.1851C141.179 18.1851 142.096 18.4087 142.9 18.8586C143.705 19.3059 144.33 19.9357 144.78 20.7477C145.227 21.5598 145.453 22.4911 145.453 23.5463C145.453 23.9499 145.427 24.3195 145.373 24.6501ZM143.1 22.829C143.088 21.9975 142.789 21.3337 142.21 20.8304C141.629 20.3295 140.911 20.0791 140.053 20.0791C139.275 20.0791 138.609 20.3271 138.055 20.8207C137.5 21.3143 137.172 21.9853 137.065 22.829H143.1Z" fill="black"/>
<path d="M147.55 28.9805C147.272 28.7034 147.134 28.3605 147.134 27.9521C147.134 27.5436 147.272 27.2008 147.55 26.9236C147.827 26.6464 148.17 26.5078 148.578 26.5078C148.974 26.5078 149.31 26.6464 149.587 26.9236C149.864 27.2008 150.003 27.5436 150.003 27.9521C150.003 28.3605 149.864 28.7034 149.587 28.9805C149.31 29.2577 148.974 29.3963 148.578 29.3963C148.17 29.3963 147.827 29.2577 147.55 28.9805Z" fill="#0E97B5"/>
<path d="M118.545 16.9255C119.346 16.9255 119.994 16.2746 119.994 15.4716C119.994 14.6685 119.346 14.0176 118.545 14.0176C117.745 14.0176 117.096 14.6685 117.096 15.4716C117.096 16.2746 117.745 16.9255 118.545 16.9255Z" fill="black"/>
<path d="M101.46 16.9255C102.26 16.9255 102.909 16.2746 102.909 15.4716C102.909 14.6685 102.26 14.0176 101.46 14.0176C100.659 14.0176 100.01 14.6685 100.01 15.4716C100.01 16.2746 100.659 16.9255 101.46 16.9255Z" fill="black"/>
</g>
<defs>
<clipPath id="clip0_88_822">
<rect width="150" height="42.3549" fill="white" transform="translate(0 0.82251)"/>
</clipPath>
</defs>
</svg>
